<?xml version="1.0" encoding="UTF-8" standalone="no"?>
<!-- Generator: Adobe Illustrator 19.0.0, SVG Export Plug-In . SVG Version: 6.00 Build 0)  -->

<svg
   xmlns:dc="http://purl.org/dc/elements/1.1/"
   xmlns:cc="http://creativecommons.org/ns#"
   xmlns:rdf="http://www.w3.org/1999/02/22-rdf-syntax-ns#"
   xmlns:svg="http://www.w3.org/2000/svg"
   xmlns="http://www.w3.org/2000/svg"
   xmlns:sodipodi="http://sodipodi.sourceforge.net/DTD/sodipodi-0.dtd"
   xmlns:inkscape="http://www.inkscape.org/namespaces/inkscape"
   version="1.1"
   id="Capa_1"
   x="0px"
   y="0px"
   viewBox="0 0 448 448"
   style="enable-background:new 0 0 448 448;"
   xml:space="preserve"
   sodipodi:docname="restore_light.svg"
   inkscape:version="0.92.4 (5da689c313, 2019-01-14)"><metadata
   id="metadata47"><rdf:RDF><cc:Work
       rdf:about=""><dc:format>image/svg+xml</dc:format><dc:type
         rdf:resource="http://purl.org/dc/dcmitype/StillImage" /><dc:title></dc:title></cc:Work></rdf:RDF></metadata><defs
   id="defs45" /><sodipodi:namedview
   pagecolor="#ffffff"
   bordercolor="#666666"
   borderopacity="1"
   objecttolerance="10"
   gridtolerance="10"
   guidetolerance="10"
   inkscape:pageopacity="0"
   inkscape:pageshadow="2"
   inkscape:window-width="1838"
   inkscape:window-height="1057"
   id="namedview43"
   showgrid="false"
   inkscape:zoom="0.52678571"
   inkscape:cx="-84.474578"
   inkscape:cy="224"
   inkscape:window-x="74"
   inkscape:window-y="-8"
   inkscape:window-maximized="1"
   inkscape:current-layer="g6" />
<g
   id="g10">
	<g
   id="g8">
		<g
   id="g6">
			<path
   d="m 253.78749,67.974931 c -86.33428,0 -156.339276,70.004989 -156.339276,156.339279 H 45.335122 l 69.483848,69.48385 69.48468,-69.48385 h -52.1131 c 0,-67.13877 54.45818,-121.59695 121.59694,-121.59695 67.13876,0 121.59695,54.45818 121.59695,121.59695 0,67.13877 -54.45819,121.59695 -121.59695,121.59695 -26.3171,0 -50.5497,-8.42523 -70.5261,-22.6692 l -24.58028,24.92796 c 26.40424,20.32412 59.3218,32.48356 95.10638,32.48356 86.3343,0 156.33928,-70.00498 156.33928,-156.33927 0,-86.33429 -70.00498,-156.339279 -156.33928,-156.339279 z"
   id="path2"
   style="fill:#000000;fill-opacity:1;stroke:#000000;stroke-width:0.81426704;stroke-opacity:1"
   inkscape:connector-curvature="0" />
			<path
   d="m 288.52983,224.31421 c 0,-19.19471 -15.5468,-34.74233 -34.74234,-34.74233 -19.19552,0 -34.74232,15.54762 -34.74232,34.74233 0,19.19471 15.5468,34.74233 34.74232,34.74233 19.19554,0 34.74234,-15.54762 34.74234,-34.74233 z"
   id="path4"
   style="fill:#000000;fill-opacity:1;stroke:#000000;stroke-width:0.81426704;stroke-opacity:1"
   inkscape:connector-curvature="0" />
		</g>
	</g>
</g>
<g
   id="g12">
</g>
<g
   id="g14">
</g>
<g
   id="g16">
</g>
<g
   id="g18">
</g>
<g
   id="g20">
</g>
<g
   id="g22">
</g>
<g
   id="g24">
</g>
<g
   id="g26">
</g>
<g
   id="g28">
</g>
<g
   id="g30">
</g>
<g
   id="g32">
</g>
<g
   id="g34">
</g>
<g
   id="g36">
</g>
<g
   id="g38">
</g>
<g
   id="g40">
</g>
</svg>