<?xml version="1.0" encoding="UTF-8" standalone="no"?>
<svg
   xmlns:dc="http://purl.org/dc/elements/1.1/"
   xmlns:cc="http://creativecommons.org/ns#"
   xmlns:rdf="http://www.w3.org/1999/02/22-rdf-syntax-ns#"
   xmlns:svg="http://www.w3.org/2000/svg"
   xmlns="http://www.w3.org/2000/svg"
   xmlns:sodipodi="http://sodipodi.sourceforge.net/DTD/sodipodi-0.dtd"
   xmlns:inkscape="http://www.inkscape.org/namespaces/inkscape"
   id="Capa_1"
   enable-background="new 0 0 512 512"
   height="512"
   viewBox="0 0 512 512"
   width="512"
   version="1.1"
   sodipodi:docname="save_light.svg"
   inkscape:version="0.92.4 (5da689c313, 2019-01-14)">
  <metadata
     id="metadata15">
    <rdf:RDF>
      <cc:Work
         rdf:about="">
        <dc:format>image/svg+xml</dc:format>
        <dc:type
           rdf:resource="http://purl.org/dc/dcmitype/StillImage" />
        <dc:title></dc:title>
      </cc:Work>
    </rdf:RDF>
  </metadata>
  <defs
     id="defs13" />
  <sodipodi:namedview
     pagecolor="#ffffff"
     bordercolor="#666666"
     borderopacity="1"
     objecttolerance="10"
     gridtolerance="10"
     guidetolerance="10"
     inkscape:pageopacity="0"
     inkscape:pageshadow="2"
     inkscape:window-width="1838"
     inkscape:window-height="1057"
     id="namedview11"
     showgrid="false"
     inkscape:zoom="0.4609375"
     inkscape:cx="-449.08475"
     inkscape:cy="256"
     inkscape:window-x="74"
     inkscape:window-y="-8"
     inkscape:window-maximized="1"
     inkscape:current-layer="Capa_1" />
  <g
     id="g8"
     style="fill:#000000;fill-opacity:1;stroke:#000000;stroke-opacity:1"
     transform="matrix(0.76317441,0,0,0.76317441,67.135824,64.966333)">
    <path
       d="M 67.101,0 0,69.278 V 512 H 512 V 0 Z M 364.026,30 V 152.374 H 229.258 V 30 Z M 199.258,30 V 152.374 H 147.974 V 30 Z M 482,482 H 30 V 81.424 L 79.808,30 h 38.166 V 182.374 H 394.027 V 30 H 482 Z"
       id="path2"
       style="fill:#000000;fill-opacity:1;stroke:#000000;stroke-opacity:1"
       inkscape:connector-curvature="0" />
    <path
       d="m 256,241 c -50.28,0 -91.187,40.906 -91.187,91.187 0,50.281 40.907,91.187 91.187,91.187 50.28,0 91.187,-40.906 91.187,-91.187 C 347.187,281.906 306.28,241 256,241 Z m 0,152.374 c -33.738,0 -61.187,-27.448 -61.187,-61.187 0,-33.739 27.449,-61.187 61.187,-61.187 33.738,0 61.187,27.448 61.187,61.187 0,33.739 -27.449,61.187 -61.187,61.187 z"
       id="path4"
       style="fill:#000000;fill-opacity:1;stroke:#000000;stroke-opacity:1"
       inkscape:connector-curvature="0" />
    <path
       d="m 241,317.187 h 30 v 30 h -30 z"
       id="path6"
       style="fill:#000000;fill-opacity:1;stroke:#000000;stroke-opacity:1"
       inkscape:connector-curvature="0" />
  </g>
</svg>
