<svg xmlns="http://www.w3.org/2000/svg" aria-hidden="true" data-prefix="fas" data-icon="undo" role="img" width="512" height="512" style=""><rect id="backgroundrect" width="100%" height="100%" x="0" y="0" fill="none" stroke="none"/><g class="currentLayer" style=""><title>Layer 1</title><path fill="#ffffff" d="M215.99792128372192,227.99792128372192 H15.664921283721924 c-6.627,0 -12,-5.373 -12,-12 V15.664921283721924 C3.664921283721924,9.037921283721925 9.037921283721925,3.664921283721924 15.664921283721924,3.664921283721924 h48 c6.627,0 12,5.373 12,12 v78.112 C121.43792128372192,42.94392128372193 187.92492128372191,11.134921283721923 261.83992128372194,11.671921283721924 c136.906,0.994 246.448,111.623 246.157,248.532 C507.7059212837219,396.9229212837219 396.7849212837219,507.6649212837219 259.99792128372195,507.6649212837219 c-64.089,0 -122.496,-24.313 -166.51,-64.215 c-5.099,-4.622 -5.334,-12.554 -0.467,-17.42 l33.967,-33.967 c4.474,-4.474 11.662,-4.7170000000000005 16.401,-0.525 C174.42492128372191,419.00092128372194 215.24492128372194,435.6649212837219 259.99792128372195,435.6649212837219 c97.268,0 176,-78.716 176,-176 c0,-97.267 -78.716,-176 -176,-176 c-58.496,0 -110.28,28.476 -142.274,72.333 h98.274 c6.627,0 12,5.373 12,12 v48 c0,6.627 -5.373,12 -12,12 z" id="svg_1" class="" fill-opacity="1" stroke="#000000" stroke-opacity="1"/></g></svg>